<?xml version="1.0" encoding="UTF-8"?>
<svg width="44px" height="44px" viewBox="0 0 44 44" version="1.1" xmlns="http://www.w3.org/2000/svg" xmlns:xlink="http://www.w3.org/1999/xlink">
    <defs>
        <polygon id="path-1" points="0.0005 0.0002 43.2985 0.0002 43.2985 43.2988 0.0005 43.2988"></polygon>
    </defs>
    <g id="Page-1" stroke="none" stroke-width="1" fill="none" fill-rule="evenodd">
        <g id="Group-3">
            <mask id="mask-2" fill="white">
                <use xlink:href="#path-1"></use>
            </mask>
            <g id="Clip-2"></g>
            <path d="M43.2985,40.9092 C43.2985,42.2282 42.2285,43.2992 40.9095,43.2992 L29.8755,43.2992 L29.8755,26.5312 L35.5035,26.5312 L36.3465,19.9962 L29.8755,19.9962 L29.8755,15.8242 C29.8755,13.9322 30.4015,12.6432 33.1135,12.6432 L36.5745,12.6412 L36.5745,6.7972 C35.9755,6.7172 33.9215,6.5392 31.5315,6.5392 C26.5425,6.5392 23.1275,9.5852 23.1275,15.1772 L23.1275,19.9962 L17.4845,19.9962 L17.4845,26.5312 L23.1275,26.5312 L23.1275,43.2992 L2.3895,43.2992 C1.0695,43.2992 0.0005,42.2282 0.0005,40.9092 L0.0005,2.3892 C0.0005,1.0702 1.0695,0.0002 2.3895,0.0002 L40.9095,0.0002 C42.2285,0.0002 43.2985,1.0702 43.2985,2.3892 L43.2985,40.9092 Z" id="Fill-1" fill="#A8A8A8" mask="url(#mask-2)"></path>
        </g>
    </g>
</svg>