<?xml version="1.0" encoding="UTF-8"?>
<svg width="44px" height="44px" viewBox="0 0 44 44" version="1.1" xmlns="http://www.w3.org/2000/svg" xmlns:xlink="http://www.w3.org/1999/xlink">
    <defs>
        <polygon id="path-1" points="0.0002 0.0001 43.242 0.0001 43.242 43.2418 0.0002 43.2418"></polygon>
    </defs>
    <g id="Page-1" stroke="none" stroke-width="1" fill="none" fill-rule="evenodd">
        <g id="Group-3">
            <mask id="mask-2" fill="white">
                <use xlink:href="#path-1"></use>
            </mask>
            <g id="Clip-2"></g>
            <path d="M39.1882,37.8368 C39.1882,38.5828 38.5832,39.1888 37.8362,39.1888 L5.4052,39.1888 C4.6592,39.1888 4.0542,38.5828 4.0542,37.8368 L4.0542,17.5668 L9.4592,17.5668 C8.7552,18.5808 8.5172,20.4708 8.5172,21.6708 C8.5172,28.9068 14.4182,34.7948 21.6712,34.7948 C28.9252,34.7948 34.8262,28.9068 34.8262,21.6708 C34.8262,20.4708 34.6562,18.6088 33.7832,17.5668 L39.1882,17.5668 L39.1882,37.8368 Z M21.6712,13.3758 C26.2642,13.3758 29.9872,17.0898 29.9872,21.6708 C29.9872,26.2538 26.2642,29.9678 21.6712,29.9678 C17.0792,29.9678 13.3562,26.2538 13.3562,21.6708 C13.3562,17.0898 17.0792,13.3758 21.6712,13.3758 Z M31.0802,6.7568 C31.0802,6.0108 31.6862,5.4048 32.4312,5.4048 L36.4852,5.4048 C37.2312,5.4048 37.8362,6.0108 37.8362,6.7568 L37.8362,10.8108 C37.8362,11.5568 37.2312,12.1618 36.4852,12.1618 L32.4312,12.1618 C31.6862,12.1618 31.0802,11.5568 31.0802,10.8108 L31.0802,6.7568 Z M38.1022,-0.0002 L5.1402,-0.0002 C2.3012,-0.0002 0.0002,2.2958 0.0002,5.1288 L0.0002,38.1138 C0.0002,40.9458 2.3012,43.2418 5.1402,43.2418 L38.1022,43.2418 C40.9402,43.2418 43.2422,40.9458 43.2422,38.1138 L43.2422,5.1288 C43.2422,2.2958 40.9402,-0.0002 38.1022,-0.0002 Z" id="Fill-1" fill="#A8A8A8" mask="url(#mask-2)"></path>
        </g>
    </g>
</svg>