<?xml version="1.0" encoding="UTF-8"?>
<svg width="1740px" height="226px" viewBox="0 0 1740 226" version="1.1" xmlns="http://www.w3.org/2000/svg" xmlns:xlink="http://www.w3.org/1999/xlink">
    <!-- Generator: Sketch 52.3 (67297) - http://www.bohemiancoding.com/sketch -->
    <title>logo</title>
    <desc>Created with Sketch.</desc>
    <g id="Page-1" stroke="none" stroke-width="1" fill="none" fill-rule="evenodd">
        <g id="logo" fill="#FFFFFF">
            <polygon id="Path" points="161.96 221.58 50.41 83.29 50.41 221.57 0.39 221.57 0.39 4.04 47.12 4.04 155.06 137.99 155.06 4.04 205.06 4.04 205.06 221.57 161.96 221.57"></polygon>
            <path d="M372.28,225.32 C301.2,225.32 250.21,175.28 250.21,113.43 L250.21,112.81 C250.21,50.97 301.84,0.31 372.94,0.31 C444.02,0.31 495.01,50.37 495.01,112.21 L495.01,112.82 C495.01,174.66 443.34,225.32 372.28,225.32 Z M442.04,112.81 C442.04,75.54 413.08,44.45 372.27,44.45 C331.46,44.45 303.16,74.92 303.16,112.21 L303.16,112.82 C303.16,150.13 332.12,181.2 372.93,181.2 C413.72,181.2 442.04,150.75 442.04,113.44 L442.04,112.81 Z" id="Shape" fill-rule="nonzero"></path>
            <polygon id="Path" points="643.47 223.15 598.71 223.15 505.58 4.04 561.52 4.04 621.74 157.25 681.96 4.04 736.57 4.04"></polygon>
            <polygon id="Path" points="840.91 59.98 771.14 221.58 719.47 221.58 818.2 2.49 864.91 2.49 963.65 221.58 910.67 221.58"></polygon>
            <polygon id="Path" points="1169.68 26.73 1030.17 26.73 1030.17 104.43 1154.88 104.43 1154.88 126.81 1030.17 126.81 1030.17 221.59 1004.15 221.59 1004.15 4.04 1169.68 4.04"></polygon>
            <polygon id="Path" points="1248.35 4.04 1248.35 221.57 1222.35 221.57 1222.35 4.04"></polygon>
            <polygon id="Path" points="1315.81 4.04 1341.81 4.04 1341.81 198.92 1471.45 198.92 1471.45 221.57 1315.81 221.57"></polygon>
            <polygon id="Path" points="1630.09 161.93 1628.77 161.93 1544.87 45.69 1544.87 221.58 1519.53 221.58 1519.53 4.04 1545.86 4.04 1629.76 122.76 1713.68 4.04 1740 4.04 1740 221.57 1714 221.57 1714 45.37"></polygon>
        </g>
    </g>
</svg>