<?xml version="1.0" encoding="UTF-8"?>
<svg width="44px" height="37px" viewBox="0 0 44 37" version="1.1" xmlns="http://www.w3.org/2000/svg" xmlns:xlink="http://www.w3.org/1999/xlink">
    <defs>
        <polygon id="path-1" points="0.0004 -1.69029668e-05 43.233 -1.69029668e-05 43.233 36.9278 0.0004 36.9278"></polygon>
    </defs>
    <g id="Page-1" stroke="none" stroke-width="1" fill="none" fill-rule="evenodd">
        <g id="Group-3">
            <mask id="mask-2" fill="white">
                <use xlink:href="#path-1"></use>
            </mask>
            <g id="Clip-2"></g>
            <path d="M36.9194,0.008 C30.9104,-0.186 26.8434,3.141 24.7084,9.982 C25.8034,9.529 26.8714,9.313 27.9054,9.313 C30.1024,9.313 31.0704,10.521 30.8114,12.951 C30.6784,14.425 29.7154,16.565 27.9054,19.38 C26.0954,22.191 24.7384,23.595 23.8364,23.595 C22.6714,23.595 21.6094,21.426 20.6384,17.078 C20.3154,15.8 19.7304,12.538 18.8994,7.292 C18.1194,2.434 16.0494,0.161 12.6944,0.484 C11.2714,0.617 9.1384,1.893 6.3014,4.323 C4.2304,6.175 2.1304,8.032 0.0004,9.882 L2.0334,12.476 C3.9754,11.13 5.1014,10.458 5.4244,10.458 C6.9094,10.458 8.2964,12.76 9.5934,17.367 C10.7574,21.579 11.9164,25.804 13.0834,30.029 C14.8244,34.633 16.9574,36.928 19.4744,36.928 C23.5434,36.928 28.5234,33.156 34.4004,25.608 C40.0794,18.389 43.0224,12.699 43.2114,8.538 C43.4724,2.98 41.3704,0.131 36.9194,0.008" id="Fill-1" fill="#A8A8A8" mask="url(#mask-2)"></path>
        </g>
    </g>
</svg>